<svg width="1190" height="47" viewBox="0 0 1190 47" fill="none" xmlns="http://www.w3.org/2000/svg">
<path d="M1.55005 44.8458H176.277M176.277 44.8458H184.543C188.055 44.8458 182.331 45.1407 176.277 44.8458ZM176.277 44.8458C171.118 44.5944 165.719 43.9145 165.595 42.2585C164.809 31.813 181.223 33.2029 194.277 33.2029C197.87 33.2029 209.681 34.1832 210.499 31.9811C212.133 27.5879 206.974 11.115 217.248 10.2046C223.115 9.68476 229.225 9.91713 235.158 9.91713H271.367C276.156 9.91713 304.614 11.5972 307.057 9.34217C307.915 8.55065 312.249 27.5299 312.249 33.2029M316.921 33.2028C321.449 33.2028 414.61 36.7337 417.372 30.6155L417.372 12.5044M415.036 12.5044H569.217M571.554 15.0917V33.2028M580.898 34.4966H772.456M772.456 6.03615V33.2029M760.776 6.03615H1043.44M1045.78 2.15521V31.9092M1045.78 33.2028H1188.28" stroke="white" stroke-width="3" stroke-linecap="round"/>
</svg>
